HIERARCHY
ROOT Hips
{
	OFFSET 0.000000 0.000000 0.000000
	CHANNELS 6 Xposition Yposition Zposition Zrotation Yrotation Xrotation 
	JOINT LeftUpLeg_virtual
	{
		OFFSET 0.000000 0.000000 0.000000
		CHANNELS 3 Zrotation Yrotation Xrotation
		JOINT LeftUpLeg
		{
			OFFSET 8.479694 -4.795517 -0.379053
			CHANNELS 3 Zrotation Yrotation Xrotation
			JOINT LeftLeg
			{
				OFFSET 0.485052 -32.551468 0.112863
				CHANNELS 3 Zrotation Yrotation Xrotation
				JOINT LeftFoot
				{
					OFFSET 0.438033 -32.635670 -3.012641
					CHANNELS 3 Zrotation Yrotation Xrotation
					JOINT LeftToeBase
					{
						OFFSET 0.970169 -13.225353 11.864223
						CHANNELS 3 Zrotation Yrotation Xrotation
						End Site
						{
							OFFSET 0.000000 0.000000 0.000000
						}
					}
				}
			}
		}
	}
	JOINT RightUpLeg_virtual
	{
		OFFSET 0.000000 0.000000 0.000000
		CHANNELS 3 Zrotation Yrotation Xrotation
		JOINT RightUpLeg
		{
			OFFSET -8.479694 -4.795517 -0.379053
			CHANNELS 3 Zrotation Yrotation Xrotation
			JOINT RightLeg
			{
				OFFSET -0.484100 -32.551483 0.112903
				CHANNELS 3 Zrotation Yrotation Xrotation
				JOINT RightFoot
				{
					OFFSET -0.438985 -32.635651 -3.012681
					CHANNELS 3 Zrotation Yrotation Xrotation
					JOINT RightToeBase
					{
						OFFSET -0.970169 -13.225354 11.864223
						CHANNELS 3 Zrotation Yrotation Xrotation
						End Site
						{
							OFFSET 0.000000 0.000000 0.000000
						}
					}
				}
			}
		}
	}
	JOINT Spine_virtual
	{
		OFFSET 0.000000 0.000000 0.000000
		CHANNELS 3 Zrotation Yrotation Xrotation
		JOINT Spine
		{
			OFFSET 0.000000 7.722015 1.166203
			CHANNELS 3 Zrotation Yrotation Xrotation
			JOINT Spine1
			{
				OFFSET 0.000000 12.024086 0.248766
				CHANNELS 3 Zrotation Yrotation Xrotation
				JOINT Spine2
				{
					OFFSET -0.000000 11.503036 -0.491240
					CHANNELS 3 Zrotation Yrotation Xrotation
					JOINT Neck_virtual
					{
						OFFSET 0.000000 0.000000 0.000000
						CHANNELS 3 Zrotation Yrotation Xrotation
						JOINT Neck
						{
							OFFSET 0.000000 18.430687 -3.123054
							CHANNELS 3 Zrotation Yrotation Xrotation
							JOINT Head
							{
								OFFSET -0.000000 9.051071 1.034021
								CHANNELS 3 Zrotation Yrotation Xrotation
								End Site
								{
									OFFSET 0.000000 0.000000 0.000000
								}
							}
						}
					}
					JOINT LeftShoulder_virtual
					{
						OFFSET 0.000000 0.000000 0.000000
						CHANNELS 3 Zrotation Yrotation Xrotation
						JOINT LeftShoulder
						{
							OFFSET 6.197824 13.665230 -4.064723
							CHANNELS 3 Zrotation Yrotation Xrotation
							JOINT LeftArm
							{
								OFFSET 7.778132 -0.187073 -1.709282
								CHANNELS 3 Zrotation Yrotation Xrotation
								JOINT LeftForeArm
								{
									OFFSET 21.954697 0.000000 -2.041093
									CHANNELS 3 Zrotation Yrotation Xrotation
									JOINT LeftHand
									{
										OFFSET 22.992908 0.000000 -0.870901
										CHANNELS 3 Zrotation Yrotation Xrotation
										End Site
										{
											OFFSET 0.000000 0.000000 0.000000
										}
									}
								}
							}
						}
					}
					JOINT RightShoulder_virtual
					{
						OFFSET 0.000000 0.000000 0.000000
						CHANNELS 3 Zrotation Yrotation Xrotation
						JOINT RightShoulder
						{
							OFFSET -6.197824 13.665230 -4.064723
							CHANNELS 3 Zrotation Yrotation Xrotation
							JOINT RightArm
							{
								OFFSET -7.778132 -0.187073 -1.709282
								CHANNELS 3 Zrotation Yrotation Xrotation
								JOINT RightForeArm
								{
									OFFSET -21.954697 0.000000 -2.041093
									CHANNELS 3 Zrotation Yrotation Xrotation
									JOINT RightHand
									{
										OFFSET -22.992908 0.000000 -0.870901
										CHANNELS 3 Zrotation Yrotation Xrotation
										End Site
										{
											OFFSET 0.000000 0.000000 0.000000
										}
									}
								}
							}
						}
					}
				}
			}
		}
	}
}
MOTION
Frames: 11
Frame Time: 0.033333
31.695742 78.218964 -18.992561 -179.882621 -33.992957 179.625410 -1.862609 -2.330888 8.764734 10.281295 -1.713937 -38.988680 3.402170 4.066574 36.697155 -7.485335 -5.925802 -6.830751 0.000000 0.000000 0.000000 2.579294 -5.977619 8.118250 5.140492 0.120105 -33.897635 -0.865617 3.283426 33.401985 4.008842 2.329944 -13.864502 0.000000 0.000000 0.000000 3.208212 -1.072294 -3.902277 1.024480 0.916282 -2.342798 -1.060085 -2.054252 11.958235 -0.000083 0.083421 0.027045 -1.147564 -0.900484 11.162054 -2.929069 -2.450824 -2.744217 0.000000 0.000000 0.000000 0.521389 -0.603904 8.218078 -1.423757 -3.122989 5.774188 -40.711015 -12.569799 -13.267154 -178.626918 -81.611260 -161.537252 0.000000 0.000000 0.000000 -4.099214 1.466749 7.214828 25.545541 9.231550 8.021834 36.715935 8.838455 9.134701 -172.723026 69.839886 -174.485297 0.000000 0.000000 0.000000 
31.270195 78.201729 -19.113544 -179.859672 -33.542929 179.592366 -1.818439 -2.487708 8.777471 10.096297 -2.445172 -39.192991 2.957730 3.172338 35.393173 -8.354204 -7.017660 -7.332205 0.000000 0.000000 0.000000 2.364756 -5.707046 8.277387 4.995807 0.477266 -33.860400 -0.805866 3.305626 33.542963 4.155135 2.375326 -14.180428 0.000000 0.000000 0.000000 3.173899 -0.842088 -3.965446 1.117294 0.891008 -2.361087 -1.005622 -2.193776 11.904759 -0.011235 0.173490 -0.017569 -1.062781 -1.024035 11.287860 -2.833711 -2.434491 -2.794513 0.000000 0.000000 0.000000 0.609678 -0.714155 8.442324 -1.438645 -3.126733 5.752203 -39.815037 -13.031879 -13.485088 -177.490129 -81.479376 -162.753996 0.000000 0.000000 0.000000 -4.015272 1.259325 7.324473 25.524659 9.325041 8.071655 35.989892 9.244918 9.208649 -172.929120 69.671918 -174.639112 0.000000 0.000000 0.000000 
30.741888 78.241570 -19.272869 -179.770019 -33.063798 179.555797 -1.748113 -2.496976 8.801547 9.833784 -2.935511 -39.222952 2.733530 2.483661 34.288499 -8.882729 -7.597746 -7.585640 0.000000 0.000000 0.000000 2.048344 -5.306600 8.527716 5.005890 0.865082 -33.799970 -0.923568 3.395735 33.678963 4.376387 2.369562 -14.318010 0.000000 0.000000 0.000000 3.177937 -0.638121 -4.110414 1.181128 1.077823 -2.402294 -0.931694 -2.110613 11.939077 0.045974 0.145150 -0.076886 -1.147607 -1.200471 11.291269 -2.704795 -2.381096 -2.904895 0.000000 0.000000 0.000000 0.567687 -0.960497 8.422113 -1.578730 -3.098583 5.689942 -38.983749 -13.540486 -13.933237 -176.877693 -81.525111 -163.499456 0.000000 0.000000 0.000000 -4.159602 1.066992 7.378903 25.611825 9.262358 8.018032 34.929331 9.757686 9.111848 -173.663447 69.438920 -175.275700 0.000000 0.000000 0.000000 
30.127100 78.319908 -19.425953 -179.809975 -32.755217 179.683084 -1.704572 -2.252990 9.060992 9.324438 -3.027032 -38.788631 2.966145 2.531608 33.487427 -9.090920 -7.655384 -7.505723 0.000000 0.000000 0.000000 1.972979 -4.936812 8.737311 4.612682 1.159636 -33.830852 -1.028250 3.461918 33.934579 4.669192 2.324657 -14.358222 0.000000 0.000000 0.000000 3.125569 -0.522781 -4.425670 1.121601 1.046629 -2.517357 -0.982509 -2.188018 11.902107 0.014685 0.130892 -0.056153 -1.147314 -1.234046 11.381459 -2.550719 -2.347822 -2.882692 0.000000 0.000000 0.000000 0.527410 -0.920277 8.486146 -1.923803 -2.829772 5.656681 -38.469217 -14.396509 -14.088378 -178.267514 -81.529673 -162.230134 0.000000 0.000000 0.000000 -4.181863 1.099665 7.406532 25.587764 9.369445 7.977255 33.632275 10.273414 9.204669 -174.291948 69.198429 -175.773142 0.000000 0.000000 0.000000 
29.432592 78.401817 -19.581617 -179.865874 -32.373287 179.781207 -1.719148 -2.082840 9.218012 8.752183 -3.046668 -38.331302 3.234848 2.561834 32.785567 -9.299469 -7.672042 -7.625265 0.000000 0.000000 0.000000 1.685937 -4.545796 8.956880 4.253081 1.421847 -33.815956 -0.979259 3.481496 34.377469 5.005129 2.260840 -14.452335 0.000000 0.000000 0.000000 3.124505 -0.409751 -4.802974 0.998333 1.125998 -2.565256 -1.104930 -2.236110 11.860131 -0.056189 0.073906 -0.026633 -1.141354 -1.085343 11.499758 -2.352660 -2.328984 -2.830986 0.000000 0.000000 0.000000 0.459564 -0.877681 8.529545 -2.354564 -2.543098 5.619259 -38.524289 -15.504215 -13.255792 -178.789846 -81.620023 -161.794696 0.000000 0.000000 0.000000 -4.170519 1.145309 7.413761 25.504637 9.480703 7.962018 32.522666 10.696934 9.706207 -174.982821 69.003858 -176.313643 0.000000 0.000000 0.000000 
28.685253 78.460304 -19.702330 179.986536 -31.870527 179.907811 -1.766316 -1.992448 9.323125 8.099069 -3.005652 -37.837810 3.544006 2.641659 32.294439 -9.485599 -7.690776 -7.956063 0.000000 0.000000 0.000000 1.842157 -4.134693 9.017089 3.219158 1.543770 -33.912139 -0.684317 3.468862 34.952004 5.356328 2.211359 -14.808105 0.000000 0.000000 0.000000 3.082703 -0.378385 -5.232173 0.794432 1.213713 -2.548485 -1.205715 -2.213670 11.883667 -0.028954 0.127713 -0.023949 -1.292928 -1.087989 11.601117 -2.174625 -2.424964 -2.812136 0.000000 0.000000 0.000000 0.295376 -0.953862 8.511886 -2.966171 -2.335234 5.532579 -39.196068 -17.013033 -10.524703 -179.593841 -81.718596 -160.978133 0.000000 0.000000 0.000000 -4.277034 1.065948 7.467929 25.235602 9.550434 7.712091 31.589577 11.237505 10.824072 -175.862686 68.792996 -177.020663 0.000000 0.000000 0.000000 
27.918674 78.488556 -19.770681 179.963272 -31.210785 179.996849 -1.793218 -1.959676 9.431361 7.463093 -2.935705 -37.292891 3.859396 2.744305 32.026303 -9.623795 -7.723111 -8.460289 0.000000 0.000000 0.000000 1.720099 -3.778452 8.989086 2.587281 1.636487 -33.975437 -0.277912 3.521012 35.480101 5.800843 2.311830 -15.095638 0.000000 0.000000 0.000000 3.129521 -0.400447 -5.653655 0.601908 1.355077 -2.506074 -1.283521 -2.148249 11.886496 0.020237 0.185237 -0.038581 -1.436796 -1.298357 11.682957 -2.034391 -2.148442 -2.873707 0.000000 0.000000 0.000000 0.112872 -0.920497 8.511274 -3.654915 -2.697344 5.534125 -40.285525 -19.353095 -5.853322 -179.797285 -81.814342 -160.599549 0.000000 0.000000 0.000000 -4.377425 1.024797 7.449123 24.987252 9.730086 7.760697 30.782013 12.008018 12.458778 -176.293576 68.732433 -177.267069 0.000000 0.000000 0.000000 
27.149809 78.507019 -19.738464 179.854850 -30.318032 -179.958327 -1.905727 -1.951217 9.511326 6.780877 -2.822428 -36.794297 4.218068 2.867968 31.851026 -9.600565 -7.645651 -9.095958 0.000000 0.000000 0.000000 1.584110 -3.637174 8.976538 1.990246 1.538745 -33.929310 -0.087431 3.564929 35.980822 6.547699 2.883547 -15.146406 0.000000 0.000000 0.000000 3.129752 -0.439536 -5.969053 0.369556 1.451515 -2.361077 -1.352776 -2.117573 11.869538 0.015323 0.118339 -0.013089 -1.439780 -1.159936 11.713298 -1.986289 -1.996946 -3.045439 0.000000 0.000000 0.000000 0.031628 -0.812539 8.453822 -4.258980 -3.197622 5.614468 -41.825811 -22.738316 0.538711 -178.829966 -82.005396 -161.262802 0.000000 0.000000 0.000000 -4.339584 1.107944 7.462657 24.665922 10.308807 7.708032 29.915894 13.293079 14.761439 -176.963262 68.845110 -177.793950 0.000000 0.000000 0.000000 
26.423479 78.533699 -19.591417 179.726688 -29.219727 -179.858429 -2.043010 -1.859876 9.502221 6.124256 -2.582073 -36.393072 4.592942 3.142191 31.831393 -9.484620 -7.475655 -9.533774 0.000000 0.000000 0.000000 1.403254 -3.465097 8.872663 1.427299 1.395485 -33.928336 0.006569 3.661872 36.186001 7.313831 3.591041 -14.956007 0.000000 0.000000 0.000000 3.062212 -0.374937 -6.240953 0.119215 1.637616 -2.205080 -1.348325 -1.976989 11.805722 0.012800 0.166437 -0.008675 -1.380374 -1.133242 11.761669 -1.899362 -1.794526 -3.330998 0.000000 0.000000 0.000000 0.033536 -0.881613 8.523159 -4.650219 -4.215381 5.564150 -43.324552 -27.032769 7.566904 -177.486195 -82.217822 -162.183443 0.000000 0.000000 0.000000 -4.246582 1.034683 7.466398 24.233282 10.844593 7.601485 29.190897 15.308163 17.155412 -177.585178 69.215184 -178.292116 0.000000 0.000000 0.000000 
25.755444 78.588394 -19.356346 179.673768 -28.201913 -179.923835 -2.228675 -1.802067 9.449411 5.556857 -2.326141 -36.026680 4.998294 3.411719 31.914192 -9.270991 -7.181590 -9.754473 0.000000 0.000000 0.000000 1.194976 -3.464119 8.880095 0.901447 1.378403 -33.827236 0.154618 3.635754 35.980562 7.995505 4.265343 -14.566022 0.000000 0.000000 0.000000 2.951358 -0.368583 -6.352184 -0.112510 1.509457 -1.992378 -1.321259 -2.050879 11.718030 0.001276 0.176283 -0.023483 -1.312627 -0.865692 11.711958 -1.950922 -1.709646 -3.726266 0.000000 0.000000 0.000000 0.115194 -0.760763 8.393453 -4.821352 -5.165351 5.538612 -44.586662 -31.584844 14.245573 -175.791516 -82.447398 -163.405856 0.000000 0.000000 0.000000 -4.121322 1.169008 7.527212 23.612850 11.804997 7.379129 28.674838 17.855262 19.487921 -178.759014 69.666113 -179.415368 0.000000 0.000000 0.000000 
25.162031 78.671646 -19.076073 179.723942 -27.316081 179.996808 -2.452693 -1.830764 9.389369 5.169487 -2.019137 -35.715479 5.269393 3.655047 31.943470 -8.970750 -6.793412 -9.904888 0.000000 0.000000 0.000000 1.055154 -3.337714 8.956646 0.468144 1.314572 -33.722420 0.212712 3.638817 35.560400 8.527165 4.782688 -14.092453 0.000000 0.000000 0.000000 2.822888 -0.133933 -6.388227 -0.290372 1.612382 -1.797403 -1.217553 -2.039140 11.592662 0.029859 0.122354 -0.021064 -1.256918 -1.060630 11.598955 -2.017315 -1.293428 -4.199070 0.000000 0.000000 0.000000 0.144883 -0.830248 8.375175 -4.458641 -6.300455 5.495428 -45.423688 -35.850447 19.922366 -174.862159 -82.726999 -163.831417 0.000000 0.000000 0.000000 -4.053100 1.113379 7.433454 23.050019 12.590707 7.365731 28.172947 20.524037 21.471862 -179.250351 70.042388 -179.924682 0.000000 0.000000 0.000000 
